<svg xmlns="http://www.w3.org/2000/svg" viewBox="0 0 112 112"><defs><style>.cls-1{fill:#fff;}</style></defs><g id="OBJECTS"><path class="cls-1" d="M89.45,40.28a1.11,1.11,0,0,0,1.48-.52L96.8,27.48c-.48-.69-1-1.36-1.49-2L88.93,38.8A1.11,1.11,0,0,0,89.45,40.28Z"/><path class="cls-1" d="M105.84,56.09a49.62,49.62,0,0,0-7.57-26.4c-2,5-4.44,11.15-5.86,13.9C90.14,48,83.81,48.81,82.26,49a132.45,132.45,0,0,0-8.5,53.65A49.86,49.86,0,0,0,105.84,56.09ZM81.06,88.16s-7.82-23,16.61-35.52C97.67,52.64,103.22,80.08,81.06,88.16Z"/><path class="cls-1" d="M43.8,94.73C34.33,45.25,55.47,18.2,67.07,7.49a49.78,49.78,0,0,0-35.18,5c17.08,16.48,5.93,35,5.93,35-14.14-9-12.12-24.65-10-32.47a49.9,49.9,0,0,0-18,22.42c4.65-2.72,13.78,1.85,19,10.12,4.85,7.69.93,16.35.28,17.65h0c7.8,11.71,11.83,27.2,13.87,39A50,50,0,0,0,52,105.76l-.71-11.85Z"/><path class="cls-1" d="M76.15,35.81c1.88-4.25,8.17-15.11,10.47-19A49.75,49.75,0,0,0,70.84,8.49C52,49.67,57.89,93.2,57.89,93.2l2.36,12.54c1.6-.14,3.17-.35,4.72-.63.28-25.6,9.69-49.34,13.37-57.66C78.19,47.23,73.88,41,76.15,35.81Z"/><path class="cls-1" d="M85,38.16a1.11,1.11,0,0,0,1.48-.52l6.92-14.46c-.53-.6-1.07-1.19-1.63-1.76l-7.3,15.26A1.12,1.12,0,0,0,85,38.16Z"/><path class="cls-1" d="M80.59,36a1.11,1.11,0,0,0,1.48-.52l7.69-16.09c-.56-.52-1.14-1-1.73-1.52l-8,16.65A1.1,1.1,0,0,0,80.59,36Z"/><path class="cls-1" d="M10.16,59.27a25.91,25.91,0,0,1-3.61-9.33,49.74,49.74,0,0,0,28.66,51.45,89.5,89.5,0,0,0-9.07-34.33C24.81,67.09,15.05,67,10.16,59.27Zm18,28C15.8,85.48,15.66,70.61,15.66,70.61,29.74,74.43,28.2,87.23,28.2,87.23Z"/><path class="cls-1" d="M20.11,75.7a41.82,41.82,0,0,0-2.86-3.1c.66,1.25,1.4,2.44,2.17,3.61s1.59,2.3,2.42,3.43,1.7,2.21,2.61,3.28A39.63,39.63,0,0,0,27.3,86c-.66-1.25-1.4-2.44-2.17-3.61s-1.59-2.3-2.42-3.43S21,76.76,20.11,75.7Z"/><path class="cls-1" d="M31.48,22.43c.4,2.53.91,5,1.45,7.54s1.16,5,1.87,7.44,1.47,4.92,2.42,7.33a74.48,74.48,0,0,0-.9-7.66c-.4-2.54-.91-5-1.45-7.55s-1.16-5-1.87-7.44a74.8,74.8,0,0,0-2.42-7.33A72.3,72.3,0,0,0,31.48,22.43Z"/><path class="cls-1" d="M88,70.82c-1.09,2.4-2.15,4.8-3.11,7.26a77,77,0,0,0-2.59,7.49,75.87,75.87,0,0,0,4-6.82c1.25-2.32,2.4-4.69,3.52-7.07s2.15-4.8,3.11-7.25a76.23,76.23,0,0,0,2.59-7.5,77.4,77.4,0,0,0-4,6.82C90.22,66.07,89.08,68.44,88,70.82Z"/></g></svg>