<svg xmlns="http://www.w3.org/2000/svg" viewBox="0 0 872 576"><defs><style>.cls-1{fill:#f1f1f2;}.cls-2{fill:#d0d1d3;}.cls-3{fill:#e6e6e7;}</style></defs><g id="Objects"><circle class="cls-1" cx="276.36" cy="314.46" r="261.87" transform="translate(-141.41 287.52) rotate(-45)"/><circle class="cls-2" cx="276.36" cy="314.46" r="177.4" transform="translate(-141.41 287.52) rotate(-45)"/><circle class="cls-1" cx="276.36" cy="314.46" r="165.38" transform="translate(-141.41 287.52) rotate(-45)"/><path class="cls-3" d="M389.67,194a165.35,165.35,0,0,1-249.86,213.7A165.36,165.36,0,1,0,389.67,194Z"/><path class="cls-3" d="M309,54.68c114,25,199.43,126.59,199.43,248.15,0,140.34-113.77,254.11-254.11,254.11A253.16,253.16,0,0,1,80.22,487.87a261.16,261.16,0,0,0,196.14,88.45c144.63,0,261.87-117.24,261.87-261.86C538.23,180.88,438.19,70.75,309,54.68Z"/><path class="cls-1" d="M732.58,119.38c-12.56-19.4-41.28-19.4-53.84,0a194.12,194.12,0,0,0-31.18,105.81c0,1.94,0,3.88.08,5.81.72,24.42,13.34,40.78,30,49.1,10.6,5.29,17.51,15.87,17.31,27.71L691,550a14.63,14.63,0,0,0,14.63,14.89h0a14.67,14.67,0,0,0,14.65-14.92l-4.14-242c-.21-11.88,6.74-22.49,17.39-27.77,16.74-8.3,29.42-24.68,30.13-49.16.06-1.93.09-3.87.09-5.81A194,194,0,0,0,732.58,119.38Z"/><path class="cls-3" d="M730,126.81a28.36,28.36,0,0,0-11.59-10.22,175.23,175.23,0,0,1,24.84,90.2c0,1.75,0,3.49-.08,5.23-1.39,47.41-52.47,61.2-82.78,41.38,23.27,39.48,96,30.87,97.68-25.84.06-1.74.08-3.49.08-5.24A175.15,175.15,0,0,0,730,126.81Z"/><path class="cls-1" d="M850.16,118.32l-8.89,105.13c-.12,2.57-2.95,2.57-3.07,0l-6-106.53c-.31-3.71-4.3-3.84-4.74-.15l-8.75,106.68c-.13,2.57-2.95,2.57-3.07,0l-8.69-106.68c-.44-3.69-4.43-3.56-4.74.15l-6.1,106.53c-.12,2.57-2.94,2.57-3.07,0l-8.82-105.13c-.7-3.66-4.72-3-4.72.8l-4.69,128c0,16,9.67,29,21.59,29h0a11,11,0,0,1,11,11.21L802.54,550a14.64,14.64,0,1,0,29.28,0l-5.07-262.69a11,11,0,0,1,11-11.22h.16c11.93,0,21.59-13,21.59-29l-4.62-128C854.88,115.34,850.86,114.66,850.16,118.32Z"/><path class="cls-3" d="M817,250.37c-6.05,3.91-10.52,9.9-16.6,13.76a31.12,31.12,0,0,1-6.06,2.95,14.63,14.63,0,0,0,4.37.7H835.6c10.6,0,19.19-11.53,19.19-25.74v-7.46a36.74,36.74,0,0,1-7.39,4.74C837.64,244,826.06,244.5,817,250.37Z"/><path class="cls-1" d="M611.2,10.08c-14.08-10.5-34.77-1-34.77,15.93V347.49l-5.92,199.72c-.18,9.82,8.19,17.88,18.58,17.88s18.79-8.06,18.6-17.89l-6.63-209.46h6.75c14.37,0,26-11,26-24.57v-259C633.82,37,625.48,20.74,611.2,10.08Z"/><path class="cls-3" d="M611.2,10.08A22,22,0,0,0,593,6.29a22,22,0,0,1,8.13,3.79C615.38,20.74,623.71,37,623.71,54.19v259c0,13.57-11.64,24.57-26,24.57h10.1c14.37,0,26-11,26-24.57v-259C633.82,37,625.48,20.74,611.2,10.08Z"/></g></svg>